# xmcd
#
# Track frame offsets:
#	150
#	15522
#	31256
#	43904
#	58322
#	73516
#	89495
#	106057
#	120428
#	135050
#	150515
#	167216
#	180589
#	195128
#	210303
#	226862
# Disc length: 3222 seconds
# Revision: 1
# Processed by: cddbd v1.5.1PL2 Copyright (c) Steve Scherf et al.
#
# Submitted via: libkcddb 0.21
#
DISCID=be0c9410
DTITLE=Bellamy Brothers - Let Your Love Flow
DYEAR=2003
DGENRE=Country
TTITLE0=I Need More Of You
TTITLE1=Sugar Daddy
TTITLE2=Let Your Love Flow
TTITLE3=Get Into Reggae Cowboy
TTITLE4=Redneck Girl
TTITLE5=Crazy From The Heart
TTITLE6=Feelin' The Feelin'
TTITLE7=If I Said You Have A Beautiful Body
TTITLE8=Dancin' Cowboys
TTITLE9=I'd Lie To You For Your Love
TTITLE10=For All The Wrong Reasons
TTITLE11=Do You Love As Good As You Look
TTITLE12=Big Love
TTITLE13=You'll Never Be Sorry
TTITLE14=When I'm Away From You
TTITLE15=Lovers Live Longer
EXTD=
EXTT0=
EXTT1=
EXTT2=
EXTT3=
EXTT4=
EXTT5=
EXTT6=
EXTT7=
EXTT8=
EXTT9=
EXTT10=
EXTT11=
EXTT12=
EXTT13=
EXTT14=
EXTT15=
PLAYORDER=
